<svg id="SvgjsSvg2234" width="840.484375" height="892.25" xmlns="http://www.w3.org/2000/svg" version="1.1" xmlns:xlink="http://www.w3.org/1999/xlink" xmlns:svgjs="http://svgjs.com/svgjs"><defs id="SvgjsDefs2235"><marker id="SvgjsMarker2301" markerWidth="16" markerHeight="12" refX="10" refY="6" viewBox="0 0 16 12" orient="auto" markerUnits="userSpaceOnUse" stroke-dasharray="0,0"><path id="SvgjsPath2302" d="M0,3 L10,6 L0,9 L0,3" fill="#323232" stroke="#323232" stroke-width="1"></path></marker><marker id="SvgjsMarker2309" markerWidth="16" markerHeight="12" refX="10" refY="6" viewBox="0 0 16 12" orient="auto" markerUnits="userSpaceOnUse" stroke-dasharray="0,0"><path id="SvgjsPath2310" d="M0,3 L10,6 L0,9 L0,3" fill="#323232" stroke="#323232" stroke-width="1"></path></marker><marker id="SvgjsMarker2313" markerWidth="16" markerHeight="12" refX="10" refY="6" viewBox="0 0 16 12" orient="auto" markerUnits="userSpaceOnUse" stroke-dasharray="0,0"><path id="SvgjsPath2314" d="M0,3 L10,6 L0,9 L0,3" fill="#323232" stroke="#323232" stroke-width="1"></path></marker><marker id="SvgjsMarker2337" markerWidth="16" markerHeight="12" refX="10" refY="6" viewBox="0 0 16 12" orient="auto" markerUnits="userSpaceOnUse" stroke-dasharray="0,0"><path id="SvgjsPath2338" d="M0,3 L10,6 L0,9 L0,3" fill="#323232" stroke="#323232" stroke-width="1"></path></marker><marker id="SvgjsMarker2365" markerWidth="16" markerHeight="12" refX="10" refY="6" viewBox="0 0 16 12" orient="auto" markerUnits="userSpaceOnUse" stroke-dasharray="0,0"><path id="SvgjsPath2366" d="M0,3 L10,6 L0,9 L0,3" fill="#323232" stroke="#323232" stroke-width="1"></path></marker><marker id="SvgjsMarker2373" markerWidth="16" markerHeight="12" refX="10" refY="6" viewBox="0 0 16 12" orient="auto" markerUnits="userSpaceOnUse" stroke-dasharray="0,0"><path id="SvgjsPath2374" d="M0,3 L10,6 L0,9 L0,3" fill="#323232" stroke="#323232" stroke-width="1"></path></marker><marker id="SvgjsMarker2425" markerWidth="16" markerHeight="12" refX="10" refY="6" viewBox="0 0 16 12" orient="auto" markerUnits="userSpaceOnUse" stroke-dasharray="0,0"><path id="SvgjsPath2426" d="M0,3 L10,6 L0,9 L0,3" fill="#323232" stroke="#323232" stroke-width="1"></path></marker><marker id="SvgjsMarker2429" markerWidth="16" markerHeight="12" refX="10" refY="6" viewBox="0 0 16 12" orient="auto" markerUnits="userSpaceOnUse" stroke-dasharray="0,0"><path id="SvgjsPath2430" d="M0,3 L10,6 L0,9 L0,3" fill="#323232" stroke="#323232" stroke-width="1"></path></marker><marker id="SvgjsMarker2433" markerWidth="16" markerHeight="12" refX="10" refY="6" viewBox="0 0 16 12" orient="auto" markerUnits="userSpaceOnUse" stroke-dasharray="0,0"><path id="SvgjsPath2434" d="M0,3 L10,6 L0,9 L0,3" fill="#323232" stroke="#323232" stroke-width="1"></path></marker><marker id="SvgjsMarker2437" markerWidth="16" markerHeight="12" refX="10" refY="6" viewBox="0 0 16 12" orient="auto" markerUnits="userSpaceOnUse" stroke-dasharray="0,0"><path id="SvgjsPath2438" d="M0,3 L10,6 L0,9 L0,3" fill="#323232" stroke="#323232" stroke-width="1"></path></marker><marker id="SvgjsMarker2447" markerWidth="16" markerHeight="12" refX="10" refY="6" viewBox="0 0 16 12" orient="auto" markerUnits="userSpaceOnUse" stroke-dasharray="0,0"><path id="SvgjsPath2448" d="M0,3 L10,6 L0,9 L0,3" fill="#323232" stroke="#323232" stroke-width="1"></path></marker><marker id="SvgjsMarker2463" markerWidth="16" markerHeight="12" refX="10" refY="6" viewBox="0 0 16 12" orient="auto" markerUnits="userSpaceOnUse" stroke-dasharray="0,0"><path id="SvgjsPath2464" d="M0,3 L10,6 L0,9 L0,3" fill="#323232" stroke="#323232" stroke-width="1"></path></marker><marker id="SvgjsMarker2467" markerWidth="16" markerHeight="12" refX="10" refY="6" viewBox="0 0 16 12" orient="auto" markerUnits="userSpaceOnUse" stroke-dasharray="0,0"><path id="SvgjsPath2468" d="M0,3 L10,6 L0,9 L0,3" fill="#323232" stroke="#323232" stroke-width="1"></path></marker><marker id="SvgjsMarker2471" markerWidth="16" markerHeight="12" refX="10" refY="6" viewBox="0 0 16 12" orient="auto" markerUnits="userSpaceOnUse" stroke-dasharray="0,0"><path id="SvgjsPath2472" d="M0,3 L10,6 L0,9 L0,3" fill="#323232" stroke="#323232" stroke-width="1"></path></marker><marker id="SvgjsMarker2475" markerWidth="16" markerHeight="12" refX="10" refY="6" viewBox="0 0 16 12" orient="auto" markerUnits="userSpaceOnUse" stroke-dasharray="0,0"><path id="SvgjsPath2476" d="M0,3 L10,6 L0,9 L0,3" fill="#323232" stroke="#323232" stroke-width="1"></path></marker></defs><g id="SvgjsG2236" transform="translate(26.010662078857422,71.25)"><path id="SvgjsPath2237" d="M 0 0L 789.4737129211426 0L 789.4737129211426 796L 0 796Z" stroke="rgba(50,50,50,1)" stroke-width="1" fill="none"></path><path id="SvgjsPath2238" d="M 0 0L 789.4737129211426 0L 789.4737129211426 40L 0 40Z" stroke="rgba(50,50,50,1)" stroke-width="1" fill-opacity="1" fill="#ffffff"></path><g id="SvgjsG2239"><text id="SvgjsText2240" font-family="Arial" text-anchor="start" font-size="18px" width="770px" fill="#323232" font-weight="700" align="middle" anchor="start" family="Arial" size="18px" weight="700" font-style="" opacity="1" y="5.800000000000001" transform="rotate(0)"><tspan id="SvgjsTspan2241" dy="22" x="10"><tspan id="SvgjsTspan2242" style="text-decoration:;">Process</tspan></tspan></text></g></g><g id="SvgjsG2243" transform="translate(46.01066207885742,111.25)"><path id="SvgjsPath2244" d="M 0 0L 269.4737129211426 0L 269.4737129211426 756L 0 756Z" stroke="rgba(50,50,50,1)" stroke-width="1" fill="none"></path><path id="SvgjsPath2245" d="M 0 0L 269.4737129211426 0L 269.4737129211426 30L 0 30Z" stroke="rgba(50,50,50,1)" stroke-width="1" fill-opacity="1" fill="#ffffff"></path><g id="SvgjsG2246"><text id="SvgjsText2247" font-family="Arial" text-anchor="middle" font-size="13px" width="250px" fill="#323232" font-weight="700" align="middle" anchor="middle" family="Arial" size="13px" weight="700" font-style="" opacity="1" y="5.05" transform="rotate(0)"><tspan id="SvgjsTspan2248" dy="16" x="135"><tspan id="SvgjsTspan2249" style="text-decoration:;">Investor</tspan></tspan></text></g></g><g id="SvgjsG2250" transform="translate(315.484375,111.25)"><path id="SvgjsPath2251" d="M 0 0L 250 0L 250 756L 0 756Z" stroke="rgba(50,50,50,1)" stroke-width="1" fill="none"></path><path id="SvgjsPath2252" d="M 0 0L 250 0L 250 30L 0 30Z" stroke="rgba(50,50,50,1)" stroke-width="1" fill-opacity="1" fill="#ffffff"></path><g id="SvgjsG2253"><text id="SvgjsText2254" font-family="Arial" text-anchor="middle" font-size="13px" width="230px" fill="#323232" font-weight="700" align="middle" anchor="middle" family="Arial" size="13px" weight="700" font-style="" opacity="1" y="5.05" transform="rotate(0)"><tspan id="SvgjsTspan2255" dy="16" x="125"><tspan id="SvgjsTspan2256" style="text-decoration:;">Bitcoin Automatic Investment (BAI)</tspan></tspan></text></g></g><g id="SvgjsG2257" transform="translate(565.484375,111.25)"><path id="SvgjsPath2258" d="M 0 0L 250 0L 250 756L 0 756Z" stroke="rgba(50,50,50,1)" stroke-width="1" fill="none"></path><path id="SvgjsPath2259" d="M 0 0L 250 0L 250 30L 0 30Z" stroke="rgba(50,50,50,1)" stroke-width="1" fill-opacity="1" fill="#ffffff"></path><g id="SvgjsG2260"><text id="SvgjsText2261" font-family="Arial" text-anchor="middle" font-size="13px" width="230px" fill="#323232" font-weight="700" align="middle" anchor="middle" family="Arial" size="13px" weight="700" font-style="" opacity="1" y="5.05" transform="rotate(0)"><tspan id="SvgjsTspan2262" dy="16" x="125"><tspan id="SvgjsTspan2263" style="text-decoration:;">DEX</tspan></tspan></text></g></g><g id="SvgjsG2264" transform="translate(26.010662078857422,111.25)"><path id="SvgjsPath2265" d="M 0 0L 20 0L 20 756L 0 756Z" stroke="rgba(50,50,50,1)" stroke-width="1" fill-opacity="1" fill="#ffffff"></path></g><g id="SvgjsG2266" transform="translate(26.010662078857422,111.25)"><path id="SvgjsPath2267" d="M 0 236L 789.4737129211426 236" stroke="rgba(50,50,50,1)" stroke-width="1" fill="none"></path><path id="SvgjsPath2268" d="M 0 0L 20 0L 20 236L 0 236Z" stroke="rgba(50,50,50,1)" stroke-width="1" fill-opacity="1" fill="#ffffff"></path><g id="SvgjsG2269"><text id="SvgjsText2270" font-family="Arial" text-anchor="middle" font-size="15px" width="226px" fill="#323232" font-weight="700" align="middle" anchor="middle" family="Arial" size="15px" weight="700" font-style="" opacity="1" y="-1.75" transform="rotate(270)"><tspan id="SvgjsTspan2271" dy="18" x="-118"><tspan id="SvgjsTspan2272" style="text-decoration:;">Deposit</tspan></tspan></text></g></g><g id="SvgjsG2273" transform="translate(26.010662078857422,347.25)"><path id="SvgjsPath2274" d="M 0 245L 789.4737129211426 245" stroke="rgba(50,50,50,1)" stroke-width="1" fill="none"></path><path id="SvgjsPath2275" d="M 0 0L 20 0L 20 245L 0 245Z" stroke="rgba(50,50,50,1)" stroke-width="1" fill-opacity="1" fill="#ffffff"></path><g id="SvgjsG2276"><text id="SvgjsText2277" font-family="Arial" text-anchor="middle" font-size="15px" width="235px" fill="#323232" font-weight="700" align="middle" anchor="middle" family="Arial" size="15px" weight="700" font-style="" opacity="1" y="-1.75" transform="rotate(270)"><tspan id="SvgjsTspan2278" dy="18" x="-122.5"><tspan id="SvgjsTspan2279" style="text-decoration:;">Set up Automatic plan</tspan></tspan></text></g></g><g id="SvgjsG2280" transform="translate(26.010662078857422,592.25)"><path id="SvgjsPath2281" d="M 0 275L 789.4737129211426 275" stroke="rgba(50,50,50,1)" stroke-width="1" fill="none"></path><path id="SvgjsPath2282" d="M 0 0L 20 0L 20 275L 0 275Z" stroke="rgba(50,50,50,1)" stroke-width="1" fill-opacity="1" fill="#ffffff"></path><g id="SvgjsG2283"><text id="SvgjsText2284" font-family="Arial" text-anchor="middle" font-size="15px" width="265px" fill="#323232" font-weight="700" align="middle" anchor="middle" family="Arial" size="15px" weight="700" font-style="" opacity="1" y="-1.75" transform="rotate(270)"><tspan id="SvgjsTspan2285" dy="18" x="-137.5"><tspan id="SvgjsTspan2286" style="text-decoration:;">Withdraw</tspan></tspan></text></g></g><g id="SvgjsG2287" transform="translate(142.484375,172.25)"><path id="SvgjsPath2288" d="M 17.333333333333332 0L 82.66666666666667 0C 105.77777777777777 0 105.77777777777777 52 82.66666666666667 52L 17.333333333333332 52C -5.777777777777778 52 -5.777777777777778 0 17.333333333333332 0Z" stroke="rgba(50,50,50,1)" stroke-width="1" fill-opacity="1" fill="#ffffff"></path><g id="SvgjsG2289"><text id="SvgjsText2290" font-family="Arial" text-anchor="middle" font-size="15px" width="80px" fill="#323232" font-weight="400" align="middle" anchor="middle" family="Arial" size="15px" weight="400" font-style="" opacity="1" y="14.25" transform="rotate(0)"><tspan id="SvgjsTspan2291" dy="18" x="50"><tspan id="SvgjsTspan2292" style="text-decoration:;">Start</tspan></tspan></text></g></g><g id="SvgjsG2293" transform="translate(122.484375,274)"><path id="SvgjsPath2294" d="M 0 26L 70 0L 140 26L 70 52L 0 26Z" stroke="rgba(50,50,50,1)" stroke-width="1" fill-opacity="1" fill="#ffffff"></path><g id="SvgjsG2295"><text id="SvgjsText2296" font-family="Arial" text-anchor="middle" font-size="13px" width="120px" fill="#323232" font-weight="400" align="middle" anchor="middle" family="Arial" size="13px" weight="400" font-style="" opacity="1" y="16.05" transform="rotate(0)"><tspan id="SvgjsTspan2297" dy="16" x="70"><tspan id="SvgjsTspan2298" style="text-decoration:;">Connect Wallet</tspan></tspan></text></g></g><g id="SvgjsG2299"><path id="SvgjsPath2300" d="M192.484375 326L192.484375 356L92.484375 356L92.484375 300L122.484375 300" stroke="#323232" stroke-width="1" fill="none" marker-end="url(#SvgjsMarker2301)"></path><rect id="SvgjsRect2303" width="9" height="16" x="109.984375" y="348" fill="#ffffff"></rect><text id="SvgjsText2304" font-family="Arial" text-anchor="middle" font-size="13px" width="9px" fill="#323232" font-weight="400" align="top" anchor="middle" family="Arial" size="13px" weight="400" font-style="" opacity="1" y="346.05" transform="rotate(0)"><tspan id="SvgjsTspan2305" dy="16" x="114.484375"><tspan id="SvgjsTspan2306" style="text-decoration:;">N</tspan></tspan></text></g><g id="SvgjsG2307"><path id="SvgjsPath2308" d="M192.484375 224.25L192.484375 248.75L192.484375 248.75L192.484375 274" stroke="#323232" stroke-width="1" fill="none" marker-end="url(#SvgjsMarker2309)"></path></g><g id="SvgjsG2311"><path id="SvgjsPath2312" d="M262.484375 300L321.91148870262396 300L321.91148870262396 300.14285714285717L381.3386024052479 300.14285714285717" stroke="#323232" stroke-width="1" fill="none" marker-end="url(#SvgjsMarker2313)"></path><rect id="SvgjsRect2315" width="9" height="16" x="317.41148870262396" y="292.07142857142856" fill="#ffffff"></rect><text id="SvgjsText2316" font-family="Arial" text-anchor="middle" font-size="13px" width="9px" fill="#323232" font-weight="400" align="top" anchor="middle" family="Arial" size="13px" weight="400" font-style="" opacity="1" y="290.12142857142857" transform="rotate(0)"><tspan id="SvgjsTspan2317" dy="16" x="321.91148870262396"><tspan id="SvgjsTspan2318" style="text-decoration:;">Y</tspan></tspan></text></g><g id="SvgjsG2319" transform="translate(381.3386024052479,279.14285714285717)"><path id="SvgjsPath2320" d="M 0 4Q 0 0 4 0L 142 0Q 146 0 146 4L 146 38Q 146 42 142 42L 4 42Q 0 42 0 38Z" stroke="rgba(50,50,50,1)" stroke-width="1" fill-opacity="1" fill="#ffffff"></path><g id="SvgjsG2321"><text id="SvgjsText2322" font-family="Arial" text-anchor="middle" font-size="13px" width="126px" fill="#323232" font-weight="400" align="middle" anchor="middle" family="Arial" size="13px" weight="400" font-style="" opacity="1" y="3.05" transform="rotate(0)"><tspan id="SvgjsTspan2323" dy="16" x="73"><tspan id="SvgjsTspan2324" style="text-decoration:;">Deposit Stable Coin </tspan></tspan><tspan id="SvgjsTspan2325" dy="16" x="73"><tspan id="SvgjsTspan2326" style="text-decoration:;">into smart contract ①</tspan></tspan></text></g></g><g id="SvgjsG2327" transform="translate(375.484375,394.14285714285717)"><path id="SvgjsPath2328" d="M 0 4Q 0 0 4 0L 153.70845481049582 0Q 157.70845481049582 0 157.70845481049582 4L 157.70845481049582 48Q 157.70845481049582 52 153.70845481049582 52L 4 52Q 0 52 0 48Z" stroke="rgba(50,50,50,1)" stroke-width="1" fill-opacity="1" fill="#ffffff"></path><g id="SvgjsG2329"><text id="SvgjsText2330" font-family="Arial" text-anchor="middle" font-size="13px" width="138px" fill="#323232" font-weight="400" align="middle" anchor="middle" family="Arial" size="13px" weight="400" font-style="" opacity="1" y="8.05" transform="rotate(0)"><tspan id="SvgjsTspan2331" dy="16" x="79"><tspan id="SvgjsTspan2332" style="text-decoration:;">Set up automatic plan </tspan></tspan><tspan id="SvgjsTspan2333" dy="16" x="79"><tspan id="SvgjsTspan2334" style="text-decoration:;">in smart contract③</tspan></tspan></text></g></g><g id="SvgjsG2335"><path id="SvgjsPath2336" d="M454.3386024052479 321.14285714285717L454.3386024052479 357.64285714285717L454.3386024052479 357.64285714285717L454.3386024052479 394.14285714285717" stroke="#323232" stroke-width="1" fill="none" marker-end="url(#SvgjsMarker2337)"></path></g><g id="SvgjsG2339" transform="translate(377.0106620788574,506.8571428571429)"><path id="SvgjsPath2340" d="M 0 4Q 0 0 4 0L 145.47371292114258 0Q 149.47371292114258 0 149.47371292114258 4L 149.47371292114258 52.28571428571422Q 149.47371292114258 56.28571428571422 145.47371292114258 56.28571428571422L 4 56.28571428571422Q 0 56.28571428571422 0 52.28571428571422Z" stroke="rgba(50,50,50,1)" stroke-width="1" fill-opacity="1" fill="#ffffff"></path><g id="SvgjsG2341"><text id="SvgjsText2342" font-family="Arial" text-anchor="middle" font-size="13px" width="130px" fill="#323232" font-weight="400" align="middle" anchor="middle" family="Arial" size="13px" weight="400" font-style="" opacity="1" y="2.19285714285711" transform="rotate(0)"><tspan id="SvgjsTspan2343" dy="16" x="75"><tspan id="SvgjsTspan2344" style="text-decoration:;">Exchange stable coin </tspan></tspan><tspan id="SvgjsTspan2345" dy="16" x="75"><tspan id="SvgjsTspan2346" style="text-decoration:;">to BTC in smart </tspan></tspan><tspan id="SvgjsTspan2347" dy="16" x="75"><tspan id="SvgjsTspan2348" style="text-decoration:;">contract via DEX</tspan></tspan></text></g></g><g id="SvgjsG2349" transform="translate(620.6272321428567,394)"><path id="SvgjsPath2350" d="M 0 4Q 0 0 4 0L 130.00000000000045 0Q 134.00000000000045 0 134.00000000000045 4L 134.00000000000045 48Q 134.00000000000045 52 130.00000000000045 52L 4 52Q 0 52 0 48Z" stroke="rgba(50,50,50,1)" stroke-width="1" fill-opacity="1" fill="#ffffff"></path><g id="SvgjsG2351"><text id="SvgjsText2352" font-family="Arial" text-anchor="middle" font-size="13px" width="115px" fill="#323232" font-weight="400" align="middle" anchor="middle" family="Arial" size="13px" weight="400" font-style="" opacity="1" y="8.05" transform="rotate(0)"><tspan id="SvgjsTspan2353" dy="16" x="67.5"><tspan id="SvgjsTspan2354" style="text-decoration:;">Buy BTC via DEX </tspan></tspan><tspan id="SvgjsTspan2355" dy="16" x="67.5"><tspan id="SvgjsTspan2356" style="text-decoration:;">in every cycle ②</tspan></tspan></text></g></g><g id="SvgjsG2357" transform="translate(604.1173085565964,506.7142857142858)"><path id="SvgjsPath2358" d="M 0 28.14285714285711L 83.50992358626047 0L 167.01984717252094 28.14285714285711L 83.50992358626047 56.28571428571422Z" stroke="rgba(50,50,50,1)" stroke-width="1" fill-opacity="1" fill="#ffffff"></path><g id="SvgjsG2359"><text id="SvgjsText2360" font-family="Arial" text-anchor="middle" font-size="13px" width="148px" fill="#323232" font-weight="400" align="middle" anchor="middle" family="Arial" size="13px" weight="400" font-style="" opacity="1" y="18.47428571428568" transform="rotate(0)"><tspan id="SvgjsTspan2361" dy="16" x="84"><tspan id="SvgjsTspan2362" style="text-decoration:;">Trade successfully?</tspan></tspan></text></g></g><g id="SvgjsG2363"><path id="SvgjsPath2364" d="M604.1173085565964 534.8571428571429L565.3008417782983 534.8571428571429L565.3008417782983 535L526.484375 535" stroke="#323232" stroke-width="1" fill="none" marker-end="url(#SvgjsMarker2365)"></path><rect id="SvgjsRect2367" width="9" height="16" x="560.8008417782983" y="526.9285714285716" fill="#ffffff"></rect><text id="SvgjsText2368" font-family="Arial" text-anchor="middle" font-size="13px" width="9px" fill="#323232" font-weight="400" align="top" anchor="middle" family="Arial" size="13px" weight="400" font-style="" opacity="1" y="524.9785714285715" transform="rotate(0)"><tspan id="SvgjsTspan2369" dy="16" x="565.3008417782983"><tspan id="SvgjsTspan2370" style="text-decoration:;">Y</tspan></tspan></text></g><g id="SvgjsG2371"><path id="SvgjsPath2372" d="M771.1371557291174 534.8571428571429L801.1371557291174 534.8571428571429L801.1371557291174 420L754.6272321428571 420" stroke="#323232" stroke-width="1" fill="none" marker-end="url(#SvgjsMarker2373)"></path><rect id="SvgjsRect2375" width="9" height="16" x="796.6371557291174" y="461.1736096354413" fill="#ffffff"></rect><text id="SvgjsText2376" font-family="Arial" text-anchor="middle" font-size="13px" width="9px" fill="#323232" font-weight="400" align="top" anchor="middle" family="Arial" size="13px" weight="400" font-style="" opacity="1" y="459.22360963544133" transform="rotate(0)"><tspan id="SvgjsTspan2377" dy="16" x="801.1371557291174"><tspan id="SvgjsTspan2378" style="text-decoration:;">N</tspan></tspan></text></g><g id="SvgjsG2379" transform="translate(363.05897528168975,653.8571428571421)"><path id="SvgjsPath2380" d="M 0 4Q 0 0 4 0L 173.3770865154779 0Q 177.3770865154779 0 177.3770865154779 4L 177.3770865154779 47.142857142857565Q 177.3770865154779 51.142857142857565 173.3770865154779 51.142857142857565L 4 51.142857142857565Q 0 51.142857142857565 0 47.142857142857565Z" stroke="rgba(50,50,50,1)" stroke-width="1" fill-opacity="1" fill="#ffffff"></path><g id="SvgjsG2381"><text id="SvgjsText2382" font-family="Arial" text-anchor="middle" font-size="13px" width="158px" fill="#323232" font-weight="400" align="middle" anchor="middle" family="Arial" size="13px" weight="400" font-style="" opacity="1" y="7.621428571428782" transform="rotate(0)"><tspan id="SvgjsTspan2383" dy="16" x="89"><tspan id="SvgjsTspan2384" style="text-decoration:;">Request to withdraw </tspan></tspan><tspan id="SvgjsTspan2385" dy="16" x="89"><tspan id="SvgjsTspan2386" style="text-decoration:;">assests </tspan></tspan></text></g></g><g id="SvgjsG2387" transform="translate(152.62723214285708,649.2857142857133)"><path id="SvgjsPath2388" d="M 0 4Q 0 0 4 0L 124.42857142857144 0Q 128.42857142857144 0 128.42857142857144 4L 128.42857142857144 56.28571428571513Q 128.42857142857144 60.28571428571513 124.42857142857144 60.28571428571513L 4 60.28571428571513Q 0 60.28571428571513 0 56.28571428571513Z" stroke="rgba(50,50,50,1)" stroke-width="1" fill-opacity="1" fill="#ffffff"></path><g id="SvgjsG2389"><text id="SvgjsText2390" font-family="Arial" text-anchor="middle" font-size="13px" width="109px" fill="#323232" font-weight="400" align="middle" anchor="middle" family="Arial" size="13px" weight="400" font-style="" opacity="1" y="4.192857142857565" transform="rotate(0)"><tspan id="SvgjsTspan2391" dy="16" x="64.5"><tspan id="SvgjsTspan2392" style="text-decoration:;">Withdraw assets </tspan></tspan><tspan id="SvgjsTspan2393" dy="16" x="64.5"><tspan id="SvgjsTspan2394" style="text-decoration:;">to wallet from BAI </tspan></tspan><tspan id="SvgjsTspan2395" dy="16" x="64.5"><tspan id="SvgjsTspan2396" style="text-decoration:;">(smart contract)</tspan></tspan></text></g></g><g id="SvgjsG2397" transform="translate(25.010662078857422,25)"><path id="SvgjsPath2398" d="M 0 0L 340.2755102040818 0L 340.2755102040818 31.33332061767578L 0 31.33332061767578Z" stroke="none" fill="none"></path><g id="SvgjsG2399"><text id="SvgjsText2400" font-family="Arial" text-anchor="middle" font-size="19px" width="341px" fill="#323232" font-weight="700" align="middle" anchor="middle" family="Arial" size="19px" weight="700" font-style="" opacity="1" y="0.8166603088378905" transform="rotate(0)"><tspan id="SvgjsTspan2401" dy="23" x="170.5"><tspan id="SvgjsTspan2402" style="text-decoration:;">Bitcoin Automatic Investment (BAI)</tspan></tspan></text></g></g><g id="SvgjsG2403" transform="translate(348.91294642857144,154.01190635136203)"><path id="SvgjsPath2404" d="M 0 0L 194.85131195335293 0L 210.85131195335293 16L 210.85131195335293 88.47618729727594L 0 88.47618729727594L 0 0Z" stroke="none" fill-opacity="1" fill="#ffffaa"></path><path id="SvgjsPath2405" d="M 194.85131195335293 0L 194.85131195335293 16L 210.85131195335293 16Z" stroke="none" fill-opacity="1" fill="#cdcdcd"></path><path id="SvgjsPath2406" d="M 0 0L 194.85131195335293 0L 210.85131195335293 16L 210.85131195335293 88.47618729727594L 0 88.47618729727594L 0 0Z" stroke="none" fill="none"></path><g id="SvgjsG2407"><text id="SvgjsText2408" font-family="Arial" text-anchor="middle" font-size="13px" width="191px" fill="#323232" font-weight="400" align="middle" anchor="middle" family="Arial" size="13px" weight="400" font-style="" opacity="1" y="26.28809364863797" transform="rotate(0)"><tspan id="SvgjsTspan2409" dy="16" x="105.5"><tspan id="SvgjsTspan2410" style="text-decoration:;">① stable coin examples:  USDC, </tspan></tspan><tspan id="SvgjsTspan2411" dy="16" x="105.5"><tspan id="SvgjsTspan2412" style="text-decoration:;">PAX etc.</tspan></tspan></text></g></g><g id="SvgjsG2413" transform="translate(589.9129464285713,279.14285714285717)"><path id="SvgjsPath2414" d="M 0 0L 177.4285714285711 0L 193.4285714285711 16L 193.4285714285711 92.0238079343523L 0 92.0238079343523L 0 0Z" stroke="none" fill-opacity="1" fill="#ffffaa"></path><path id="SvgjsPath2415" d="M 177.4285714285711 0L 177.4285714285711 16L 193.4285714285711 16Z" stroke="none" fill-opacity="1" fill="#cdcdcd"></path><path id="SvgjsPath2416" d="M 0 0L 177.4285714285711 0L 193.4285714285711 16L 193.4285714285711 92.0238079343523L 0 92.0238079343523L 0 0Z" stroke="none" fill="none"></path><g id="SvgjsG2417"><text id="SvgjsText2418" font-family="Arial" text-anchor="middle" font-size="13px" width="174px" fill="#323232" font-weight="400" align="middle" anchor="middle" family="Arial" size="13px" weight="400" font-style="" opacity="1" y="28.061903967176153" transform="rotate(0)"><tspan id="SvgjsTspan2419" dy="16" x="97"><tspan id="SvgjsTspan2420" style="text-decoration:;">② BTC (ERC20) examples:  </tspan></tspan><tspan id="SvgjsTspan2421" dy="16" x="97"><tspan id="SvgjsTspan2422" style="text-decoration:;">wBTC, TBTC etc.</tspan></tspan></text></g></g><g id="SvgjsG2423"><path id="SvgjsPath2424" d="M687.6272321428569 446L687.6272321428569 476.3571428571429L687.6272321428569 476.3571428571429L687.6272321428569 506.7142857142858" stroke="#323232" stroke-width="1" fill="none" marker-end="url(#SvgjsMarker2425)"></path></g><g id="SvgjsG2427"><path id="SvgjsPath2428" d="M533.1928298104958 420.14285714285717L576.9100309766762 420.14285714285717L576.9100309766762 420L620.6272321428567 420" stroke="#323232" stroke-width="1" fill="none" marker-end="url(#SvgjsMarker2429)"></path></g><g id="SvgjsG2431"><path id="SvgjsPath2432" d="M363.05897528168975 679.4285714285708L322.0573894265592 679.4285714285708L322.0573894265592 679.4285714285709L281.0558035714286 679.4285714285709" stroke="#323232" stroke-width="1" fill="none" marker-end="url(#SvgjsMarker2433)"></path></g><g id="SvgjsG2435"><path id="SvgjsPath2436" d="M451.7475185394287 563.1428571428571L451.7475185394287 608.4999999999995L451.7475185394287 608.4999999999995L451.7475185394287 653.8571428571421" stroke="#323232" stroke-width="1" fill="none" marker-end="url(#SvgjsMarker2437)"></path></g><g id="SvgjsG2439" transform="translate(164.97417091836735,766.7142857142858)"><path id="SvgjsPath2440" d="M 17.273809523809444 0L 86.4608843537414 0C 109.49263038548733 0 109.49263038548733 51.82142857142833 86.4608843537414 51.82142857142833L 17.273809523809444 51.82142857142833C -5.757936507936481 51.82142857142833 -5.757936507936481 0 17.273809523809444 0Z" stroke="rgba(50,50,50,1)" stroke-width="1" fill-opacity="1" fill="#ffffff"></path><g id="SvgjsG2441"><text id="SvgjsText2442" font-family="Arial" text-anchor="middle" font-size="15px" width="84px" fill="#323232" font-weight="400" align="middle" anchor="middle" family="Arial" size="15px" weight="400" font-style="" opacity="1" y="14.160714285714164" transform="rotate(0)"><tspan id="SvgjsTspan2443" dy="18" x="52"><tspan id="SvgjsTspan2444" style="text-decoration:;">End</tspan></tspan></text></g></g><g id="SvgjsG2445"><path id="SvgjsPath2446" d="M216.84151785714278 709.5714285714284L216.84151785714278 738.1428571428571L216.84151785714283 738.1428571428571L216.84151785714283 766.7142857142858" stroke="#323232" stroke-width="1" fill="none" marker-end="url(#SvgjsMarker2447)"></path></g><g id="SvgjsG2449" transform="translate(158.50478316326544,374.8605453530137)"><path id="SvgjsPath2450" d="M 0 0L 174.408163265306 0L 190.408163265306 16L 190.408163265306 90.27890929397256L 0 90.27890929397256L 0 0Z" stroke="none" fill-opacity="1" fill="#ffffaa"></path><path id="SvgjsPath2451" d="M 174.408163265306 0L 174.408163265306 16L 190.408163265306 16Z" stroke="none" fill-opacity="1" fill="#cdcdcd"></path><path id="SvgjsPath2452" d="M 0 0L 174.408163265306 0L 190.408163265306 16L 190.408163265306 90.27890929397256L 0 90.27890929397256L 0 0Z" stroke="none" fill="none"></path><g id="SvgjsG2453"><text id="SvgjsText2454" font-family="Arial" text-anchor="middle" font-size="13px" width="171px" fill="#323232" font-weight="400" align="middle" anchor="middle" family="Arial" size="13px" weight="400" font-style="" opacity="1" y="19.18945464698628" transform="rotate(0)"><tspan id="SvgjsTspan2455" dy="16" x="95.5"><tspan id="SvgjsTspan2456" style="text-decoration:;">③ Automatic plan (cycle) </tspan></tspan><tspan id="SvgjsTspan2457" dy="16" x="95.5"><tspan id="SvgjsTspan2458" style="text-decoration:;">could be daily, weekly or </tspan></tspan><tspan id="SvgjsTspan2459" dy="16" x="95.5"><tspan id="SvgjsTspan2460" style="text-decoration:;">monthly</tspan></tspan></text></g></g><g id="SvgjsG2461"><path id="SvgjsPath2462" d="M348.91294642857144 420L362.1986607142857 420L362.1986607142857 420.14285714285717L375.484375 420.14285714285717" stroke="#323232" stroke-width="1" fill="none" marker-end="url(#SvgjsMarker2463)"></path></g><g id="SvgjsG2465"><path id="SvgjsPath2466" d="M686.6272321428569 371.1666650772095L686.6272321428569 382.58333253860474L687.6272321428569 382.58333253860474L687.6272321428569 394" stroke="#323232" stroke-width="1" fill="none" marker-end="url(#SvgjsMarker2467)"></path></g><g id="SvgjsG2469"><path id="SvgjsPath2470" d="M454.3386024052479 242.48809364863757L454.3386024052479 260.8154753957474L454.3386024052479 260.8154753957474L454.3386024052479 279.14285714285717" stroke="#323232" stroke-width="1" fill="none" marker-end="url(#SvgjsMarker2471)"></path></g><g id="SvgjsG2473"><path id="SvgjsPath2474" d="M451.7475185394287 506.8571428571429L451.7475185394287 476.0714285714286L671.7700892857143 476.0714285714286L671.7700892857143 445.28571428571433" stroke="#323232" stroke-width="1" fill="none" marker-end="url(#SvgjsMarker2475)"></path><rect id="SvgjsRect2477" width="98" height="16" x="512.7588039125715" y="468.0714285714286" fill="#ffffff"></rect><text id="SvgjsText2478" font-family="Arial" text-anchor="middle" font-size="13px" width="98px" fill="#323232" font-weight="400" align="top" anchor="middle" family="Arial" size="13px" weight="400" font-style="" opacity="1" y="466.1214285714286" transform="rotate(0)"><tspan id="SvgjsTspan2479" dy="16" x="561.7588039125715"><tspan id="SvgjsTspan2480" style="text-decoration:;">Next cycle (auto)</tspan></tspan></text></g></svg>